FFmpeg version SVN-r25716, Copyright (c) 2000-2010 the FFmpeg developers  built on Nov 10 2010 12:23:18 with gcc 4.1.2 20080704 (Red Hat 4.1.2-48)  configuration: --enable-libmp3lame --enable-shared --disable-mmx --arch=x86_64  libavutil     50.33. 0 / 50.33. 0  libavcore      0.12. 1 /  0.12. 1  libavcodec    52.94. 4 / 52.94. 4  libavformat   52.84. 0 / 52.84. 0  libavdevice   52. 2. 2 / 52. 2. 2  libavfilter    1.59. 0 /  1.59. 0  libswscale     0.12. 0 /  0.12. 0Seems stream 0 codec frame rate differs from container frame rate: 1200.00 (1200/1) -> 15.00 (15/1)Input #0, mov,mp4,m4a,3gp,3g2,mj2, from '/RAID10/data/converted_video_files/8072.mov':  Metadata:    major_brand     : qt      minor_version   : 537199360    compatible_brands: qt    Duration: 00:01:00.20, start: 0.000000, bitrate: 599 kb/s    Stream #0.0(eng): Video: h264, yuv420p, 320x240, 597 kb/s, 15 fps, 15 tbr, 600 tbn, 1200 tbc[buffer @ 0x10902c00] w:320 h:240 pixfmt:yuv420pOutput #0, flv, to '/RAID10/data/converted_video_files/8072.flv':  Metadata:    encoder         : Lavf52.84.0    Stream #0.0(eng): Video: flv, yuv420p, 320x240, q=2-31, 600 kb/s, 1k tbn, 24 tbcStream mapping:  Stream #0.0 -> #0.0Press [q] to stop encodingframe=  115 fps=  0 q=9.1 size=     573kB time=7.62 bitrate= 616.0kbits/s    frame=  243 fps=236 q=5.6 size=    1104kB time=16.17 bitrate= 559.3kbits/s    frame=  383 fps=250 q=4.7 size=    1720kB time=25.50 bitrate= 552.4kbits/s    frame=  525 fps=258 q=5.1 size=    2408kB time=34.96 bitrate= 564.2kbits/s    frame=  653 fps=257 q=5.8 size=    3088kB time=43.50 bitrate= 581.6kbits/s    frame=  770 fps=254 q=4.9 size=    3731kB time=51.29 bitrate= 595.9kbits/s    frame=  885 fps=251 q=4.0 size=    4319kB time=58.96 bitrate= 600.1kbits/s    frame=  903 fps=250 q=2.9 Lsize=    4422kB time=60.17 bitrate= 602.0kbits/s    video:4407kB audio:0kB global headers:0kB muxing overhead 0.324795%